<svg viewBox="300 240 420 540" xmlns="http://www.w3.org/2000/svg">
  <g class="origin-center">
    <path fill="#1CB0F6" d="M496 264a156 156 0 0 1 31 30c37 41 70 96 70 153v8l-1 14q22-16 38-39l9-9c8 0 8 0 14 5q18 30 29 63l2 6a205 205 0 0 1-14 173q-17 30-43 50l-6 5c-25 18-58 35-90 35l10-4q42-13 60-54 13-36-4-70-11-17-25-32l-6-6c-8-10-8-10-18-18v-2h-2l-4-7-5-5v-2h-2l-3-11-3-9-1-25c0-6 0-6-6-10-17 0-30 15-42 26l-4 3-26 28-3 4c-26 33-42 72-37 114a106 106 0 0 0 75 79v1a176 176 0 0 1-163-205q11-41 35-76l4-5 23-31 6-7 14-18c52-63 52-63 73-141 2-10 6-11 15-11"/>
    <path fill="#8CE0FF" d="M526 502c6 5 6 5 7 11v6q0 17 6 34v5h2c9 11 9 11 9 14h2v2l4 2 8 8 5 5 11 12 4 4c16 19 28 37 27 63v7q-2 32-25 55l-3 4q-20 17-45 24v1l-28 1h-9c-12 0-12 0-16-3l-7-3q-47-20-63-68c-10-39 3-78 26-110l9-12 4-5c47-57 47-57 72-57"/>
  </g>
</svg>
